<svg xmlns="http://www.w3.org/2000/svg" viewBox="0 0 64 64">
  <defs>
    <clipPath id="c">
      <circle cx="32" cy="32" r="32"/>
    </clipPath>
  </defs>
  <g clip-path="url(#c)">
    <rect width="64" height="64" fill="#fff"/>
    <rect width="64" height="4.923" y="0" fill="#b22234"/>
    <rect width="64" height="4.923" y="9.846" fill="#b22234"/>
    <rect width="64" height="4.923" y="19.692" fill="#b22234"/>
    <rect width="64" height="4.923" y="29.538" fill="#b22234"/>
    <rect width="64" height="4.923" y="39.384" fill="#b22234"/>
    <rect width="64" height="4.923" y="49.23" fill="#b22234"/>
    <rect width="64" height="4.923" y="59.076" fill="#b22234"/>
    <rect width="30" height="34.462" fill="#3c3b6e"/>
    <g fill="#fff">
      <circle cx="5" cy="5" r="1.2"/>
      <circle cx="11" cy="5" r="1.2"/>
      <circle cx="17" cy="5" r="1.2"/>
      <circle cx="23" cy="5" r="1.2"/>
      <circle cx="8" cy="10" r="1.2"/>
      <circle cx="14" cy="10" r="1.2"/>
      <circle cx="20" cy="10" r="1.2"/>
      <circle cx="26" cy="10" r="1.2"/>
      <circle cx="5" cy="15" r="1.2"/>
      <circle cx="11" cy="15" r="1.2"/>
      <circle cx="17" cy="15" r="1.2"/>
      <circle cx="23" cy="15" r="1.2"/>
      <circle cx="8" cy="20" r="1.2"/>
      <circle cx="14" cy="20" r="1.2"/>
      <circle cx="20" cy="20" r="1.2"/>
      <circle cx="26" cy="20" r="1.2"/>
      <circle cx="5" cy="25" r="1.2"/>
      <circle cx="11" cy="25" r="1.2"/>
      <circle cx="17" cy="25" r="1.2"/>
      <circle cx="23" cy="25" r="1.2"/>
    </g>
  </g>
</svg>
